<?xml version="1.0" encoding="utf-8"?>
<!-- Generator: Adobe Illustrator 22.0.0, SVG Export Plug-In . SVG Version: 6.00 Build 0)  -->
<svg version="1.1" id="Layer_1" xmlns="http://www.w3.org/2000/svg" xmlns:xlink="http://www.w3.org/1999/xlink" x="0px" y="0px"
	 viewBox="0 0 42 28" style="enable-background:new 0 0 42 28;" xml:space="preserve">
<style type="text/css">
	.st0{fill:none;}
	.st1{fill:#FFFFFF;}
</style>
<g>
	<path class="st0" d="M1,20v5.9c0,0.6,0.5,1.1,1.1,1.2h37.8c0.6,0,1.1-0.5,1.1-1.1v-5.9c0-0.6-0.5-1.1-1.1-1.1H2.1
		C1.5,19,1,19.5,1,20z M34.5,21c0.3,0,0.5,0.2,0.5,0.5S34.8,22,34.5,22S34,21.8,34,21.5S34.2,21,34.5,21z M34.5,24
		c0.3,0,0.5,0.2,0.5,0.5S34.8,25,34.5,25S34,24.8,34,24.5S34.2,24,34.5,24z M33.5,23c0,0.3-0.2,0.5-0.5,0.5s-0.5-0.2-0.5-0.5
		s0.2-0.5,0.5-0.5S33.5,22.7,33.5,23z M32.5,21c0.3,0,0.5,0.2,0.5,0.5S32.8,22,32.5,22S32,21.8,32,21.5S32.2,21,32.5,21z M32.5,24
		c0.3,0,0.5,0.2,0.5,0.5S32.8,25,32.5,25S32,24.8,32,24.5S32.2,24,32.5,24z M31.5,23c0,0.3-0.2,0.5-0.5,0.5s-0.5-0.2-0.5-0.5
		s0.2-0.5,0.5-0.5S31.5,22.7,31.5,23z M30.5,21c0.3,0,0.5,0.2,0.5,0.5S30.8,22,30.5,22S30,21.8,30,21.5S30.2,21,30.5,21z M30.5,24
		c0.3,0,0.5,0.2,0.5,0.5S30.8,25,30.5,25S30,24.8,30,24.5S30.2,24,30.5,24z M29.5,23c0,0.3-0.2,0.5-0.5,0.5s-0.5-0.2-0.5-0.5
		s0.2-0.5,0.5-0.5S29.5,22.7,29.5,23z M28.5,21c0.3,0,0.5,0.2,0.5,0.5S28.8,22,28.5,22S28,21.8,28,21.5S28.2,21,28.5,21z M28.5,24
		c0.3,0,0.5,0.2,0.5,0.5S28.8,25,28.5,25S28,24.8,28,24.5S28.2,24,28.5,24z M27.5,23c0,0.3-0.2,0.5-0.5,0.5s-0.5-0.2-0.5-0.5
		s0.2-0.5,0.5-0.5S27.5,22.7,27.5,23z M26.5,21c0.3,0,0.5,0.2,0.5,0.5S26.8,22,26.5,22S26,21.8,26,21.5S26.2,21,26.5,21z M26.5,24
		c0.3,0,0.5,0.2,0.5,0.5S26.8,25,26.5,25S26,24.8,26,24.5S26.2,24,26.5,24z M25.5,23c0,0.3-0.2,0.5-0.5,0.5s-0.5-0.2-0.5-0.5
		s0.2-0.5,0.5-0.5S25.5,22.7,25.5,23z M24.5,21c0.3,0,0.5,0.2,0.5,0.5S24.8,22,24.5,22S24,21.8,24,21.5S24.2,21,24.5,21z M24.5,24
		c0.3,0,0.5,0.2,0.5,0.5S24.8,25,24.5,25S24,24.8,24,24.5S24.2,24,24.5,24z M23.5,23c0,0.3-0.2,0.5-0.5,0.5s-0.5-0.2-0.5-0.5
		s0.2-0.5,0.5-0.5S23.5,22.7,23.5,23z M22.5,21c0.3,0,0.5,0.2,0.5,0.5S22.8,22,22.5,22S22,21.8,22,21.5S22.2,21,22.5,21z M22.5,24
		c0.3,0,0.5,0.2,0.5,0.5S22.8,25,22.5,25S22,24.8,22,24.5S22.2,24,22.5,24z M21,22.5c0.3,0,0.5,0.2,0.5,0.5s-0.2,0.5-0.5,0.5
		s-0.5-0.2-0.5-0.5S20.7,22.5,21,22.5z M5.5,21.5C6.3,21.5,7,22.2,7,23s-0.7,1.5-1.5,1.5S4,23.8,4,23S4.7,21.5,5.5,21.5z"/>
	<path class="st0" d="M1,11v5.9c0,0.5,0.4,0.9,0.9,1.1c0.1,0,0.2,0,0.2,0h37.8c0.1,0,0.2,0,0.3,0c0.4-0.1,0.8-0.5,0.8-1v-5.9
		c0-0.6-0.5-1.1-1.1-1.1H2.1C1.5,10,1,10.5,1,11z M34.5,12c0.3,0,0.5,0.2,0.5,0.5S34.8,13,34.5,13S34,12.8,34,12.5S34.2,12,34.5,12z
		 M34.5,15c0.3,0,0.5,0.2,0.5,0.5S34.8,16,34.5,16S34,15.8,34,15.5S34.2,15,34.5,15z M33.5,14c0,0.3-0.2,0.5-0.5,0.5
		s-0.5-0.2-0.5-0.5s0.2-0.5,0.5-0.5S33.5,13.7,33.5,14z M32.5,12c0.3,0,0.5,0.2,0.5,0.5S32.8,13,32.5,13S32,12.8,32,12.5
		S32.2,12,32.5,12z M32.5,15c0.3,0,0.5,0.2,0.5,0.5S32.8,16,32.5,16S32,15.8,32,15.5S32.2,15,32.5,15z M31.5,14
		c0,0.3-0.2,0.5-0.5,0.5s-0.5-0.2-0.5-0.5s0.2-0.5,0.5-0.5S31.5,13.7,31.5,14z M30.5,12c0.3,0,0.5,0.2,0.5,0.5S30.8,13,30.5,13
		S30,12.8,30,12.5S30.2,12,30.5,12z M30.5,15c0.3,0,0.5,0.2,0.5,0.5S30.8,16,30.5,16S30,15.8,30,15.5S30.2,15,30.5,15z M29.5,14
		c0,0.3-0.2,0.5-0.5,0.5s-0.5-0.2-0.5-0.5s0.2-0.5,0.5-0.5S29.5,13.7,29.5,14z M28.5,12c0.3,0,0.5,0.2,0.5,0.5S28.8,13,28.5,13
		S28,12.8,28,12.5S28.2,12,28.5,12z M28.5,15c0.3,0,0.5,0.2,0.5,0.5S28.8,16,28.5,16S28,15.8,28,15.5S28.2,15,28.5,15z M27.5,14
		c0,0.3-0.2,0.5-0.5,0.5s-0.5-0.2-0.5-0.5s0.2-0.5,0.5-0.5S27.5,13.7,27.5,14z M26.5,12c0.3,0,0.5,0.2,0.5,0.5S26.8,13,26.5,13
		S26,12.8,26,12.5S26.2,12,26.5,12z M26.5,15c0.3,0,0.5,0.2,0.5,0.5S26.8,16,26.5,16S26,15.8,26,15.5S26.2,15,26.5,15z M25.5,14
		c0,0.3-0.2,0.5-0.5,0.5s-0.5-0.2-0.5-0.5s0.2-0.5,0.5-0.5S25.5,13.7,25.5,14z M24.5,12c0.3,0,0.5,0.2,0.5,0.5S24.8,13,24.5,13
		S24,12.8,24,12.5S24.2,12,24.5,12z M24.5,15c0.3,0,0.5,0.2,0.5,0.5S24.8,16,24.5,16S24,15.8,24,15.5S24.2,15,24.5,15z M23.5,14
		c0,0.3-0.2,0.5-0.5,0.5s-0.5-0.2-0.5-0.5s0.2-0.5,0.5-0.5S23.5,13.7,23.5,14z M22.5,12c0.3,0,0.5,0.2,0.5,0.5S22.8,13,22.5,13
		S22,12.8,22,12.5S22.2,12,22.5,12z M22.5,15c0.3,0,0.5,0.2,0.5,0.5S22.8,16,22.5,16S22,15.8,22,15.5S22.2,15,22.5,15z M21,13.5
		c0.3,0,0.5,0.2,0.5,0.5s-0.2,0.5-0.5,0.5s-0.5-0.2-0.5-0.5S20.7,13.5,21,13.5z M5.5,12.5C6.3,12.5,7,13.2,7,14s-0.7,1.5-1.5,1.5
		S4,14.8,4,14S4.7,12.5,5.5,12.5z"/>
	<path class="st0" d="M41,8V2.1C41,1.5,40.5,1,39.9,1H2.1C1.5,1,1,1.5,1,2.1v5.8C1,8.5,1.5,9,2.1,9h37.8C40.5,9,41,8.5,41,8z
		 M32.5,3C32.8,3,33,3.2,33,3.5S32.8,4,32.5,4S32,3.8,32,3.5S32.2,3,32.5,3z M30.5,3C30.8,3,31,3.2,31,3.5S30.8,4,30.5,4
		S30,3.8,30,3.5S30.2,3,30.5,3z M28.5,3C28.8,3,29,3.2,29,3.5S28.8,4,28.5,4S28,3.8,28,3.5S28.2,3,28.5,3z M26.5,3
		C26.8,3,27,3.2,27,3.5S26.8,4,26.5,4S26,3.8,26,3.5S26.2,3,26.5,3z M24.5,3C24.8,3,25,3.2,25,3.5S24.8,4,24.5,4S24,3.8,24,3.5
		S24.2,3,24.5,3z M22.5,3C22.8,3,23,3.2,23,3.5S22.8,4,22.5,4S22,3.8,22,3.5S22.2,3,22.5,3z M5.5,6.5C4.7,6.5,4,5.8,4,5
		s0.7-1.5,1.5-1.5S7,4.2,7,5S6.3,6.5,5.5,6.5z M21,5.5c-0.3,0-0.5-0.2-0.5-0.5s0.2-0.5,0.5-0.5s0.5,0.2,0.5,0.5S21.3,5.5,21,5.5z
		 M22.5,7C22.2,7,22,6.8,22,6.5S22.2,6,22.5,6S23,6.2,23,6.5S22.8,7,22.5,7z M23,5.5c-0.3,0-0.5-0.2-0.5-0.5s0.2-0.5,0.5-0.5
		s0.5,0.2,0.5,0.5S23.3,5.5,23,5.5z M24.5,7C24.2,7,24,6.8,24,6.5S24.2,6,24.5,6S25,6.2,25,6.5S24.8,7,24.5,7z M25,5.5
		c-0.3,0-0.5-0.2-0.5-0.5s0.2-0.5,0.5-0.5s0.5,0.2,0.5,0.5S25.3,5.5,25,5.5z M26.5,7C26.2,7,26,6.8,26,6.5S26.2,6,26.5,6
		S27,6.2,27,6.5S26.8,7,26.5,7z M27,5.5c-0.3,0-0.5-0.2-0.5-0.5s0.2-0.5,0.5-0.5s0.5,0.2,0.5,0.5S27.3,5.5,27,5.5z M28.5,7
		C28.2,7,28,6.8,28,6.5S28.2,6,28.5,6S29,6.2,29,6.5S28.8,7,28.5,7z M29,5.5c-0.3,0-0.5-0.2-0.5-0.5s0.2-0.5,0.5-0.5
		s0.5,0.2,0.5,0.5S29.3,5.5,29,5.5z M30.5,7C30.2,7,30,6.8,30,6.5S30.2,6,30.5,6S31,6.2,31,6.5S30.8,7,30.5,7z M31,5.5
		c-0.3,0-0.5-0.2-0.5-0.5s0.2-0.5,0.5-0.5s0.5,0.2,0.5,0.5S31.3,5.5,31,5.5z M32.5,7C32.2,7,32,6.8,32,6.5S32.2,6,32.5,6
		S33,6.2,33,6.5S32.8,7,32.5,7z M33,5.5c-0.3,0-0.5-0.2-0.5-0.5s0.2-0.5,0.5-0.5s0.5,0.2,0.5,0.5S33.3,5.5,33,5.5z M34.5,7
		C34.2,7,34,6.8,34,6.5S34.2,6,34.5,6S35,6.2,35,6.5S34.8,7,34.5,7z M34.5,4C34.2,4,34,3.8,34,3.5S34.2,3,34.5,3S35,3.2,35,3.5
		S34.8,4,34.5,4z"/>
	<path d="M42.1,7.9V2.1C42,0.9,41.1,0,39.9,0H2.1C0.9,0,0,0.9,0,2.1V8c0,0.6,0.3,1.1,0.7,1.5C1.1,9.2,1.6,9,2.1,9C1.5,9,1,8.5,1,7.9
		V2.1C1,1.5,1.5,1,2.1,1h37.8C40.5,1,41,1.5,41,2.1V8c0,0.5-0.5,1-1.1,1c0.6,0,1,0.2,1.4,0.5C41.8,9.1,42.1,8.6,42.1,7.9z"/>
	<circle class="st1" cx="5.5" cy="5" r="1"/>
	<circle cx="22.5" cy="3.5" r="0.5"/>
	<circle cx="24.5" cy="3.5" r="0.5"/>
	<circle cx="26.5" cy="3.5" r="0.5"/>
	<circle cx="28.5" cy="3.5" r="0.5"/>
	<circle cx="30.5" cy="3.5" r="0.5"/>
	<circle cx="32.5" cy="3.5" r="0.5"/>
	<circle cx="34.5" cy="3.5" r="0.5"/>
	<circle cx="22.5" cy="6.5" r="0.5"/>
	<circle cx="24.5" cy="6.5" r="0.5"/>
	<circle cx="26.5" cy="6.5" r="0.5"/>
	<circle cx="28.5" cy="6.5" r="0.5"/>
	<circle cx="30.5" cy="6.5" r="0.5"/>
	<circle cx="32.5" cy="6.5" r="0.5"/>
	<circle cx="34.5" cy="6.5" r="0.5"/>
	<circle cx="21" cy="5" r="0.5"/>
	<circle cx="23" cy="5" r="0.5"/>
	<circle cx="25" cy="5" r="0.5"/>
	<circle cx="27" cy="5" r="0.5"/>
	<circle cx="29" cy="5" r="0.5"/>
	<circle cx="31" cy="5" r="0.5"/>
	<circle cx="33" cy="5" r="0.5"/>
	<path d="M1,16.9V11c0-0.5,0.5-1,1.1-1c-0.5,0-1-0.2-1.4-0.5C0.3,9.9,0,10.4,0,11.1V17c0,0.6,0.3,1.1,0.7,1.5
		C1,18.2,1.4,18.1,1.9,18C1.4,17.8,1,17.4,1,16.9z"/>
	<path d="M39.9,10c0.6,0,1.1,0.5,1.1,1.1V17c0,0.5-0.3,0.9-0.8,1c0.4,0.1,0.8,0.2,1.1,0.5c0.5-0.4,0.8-0.9,0.8-1.6V11
		c-0.1-0.6-0.3-1.1-0.8-1.5C40.9,9.8,40.5,10,39.9,10L39.9,10z"/>
	<path d="M2.1,9c-0.5,0-1,0.2-1.4,0.5C1.1,9.8,1.6,10,2.1,10h37.8H40c0.5,0,0.9-0.2,1.3-0.5C40.9,9.2,40.5,9,39.9,9H2.1z"/>
	<circle class="st1" cx="5.5" cy="14" r="1"/>
	<circle cx="22.5" cy="12.5" r="0.5"/>
	<circle cx="24.5" cy="12.5" r="0.5"/>
	<circle cx="26.5" cy="12.5" r="0.5"/>
	<circle cx="28.5" cy="12.5" r="0.5"/>
	<circle cx="30.5" cy="12.5" r="0.5"/>
	<circle cx="32.5" cy="12.5" r="0.5"/>
	<circle cx="34.5" cy="12.5" r="0.5"/>
	<circle cx="22.5" cy="15.5" r="0.5"/>
	<circle cx="24.5" cy="15.5" r="0.5"/>
	<circle cx="26.5" cy="15.5" r="0.5"/>
	<circle cx="28.5" cy="15.5" r="0.5"/>
	<circle cx="30.5" cy="15.5" r="0.5"/>
	<circle cx="32.5" cy="15.5" r="0.5"/>
	<circle cx="34.5" cy="15.5" r="0.5"/>
	<circle cx="21" cy="14" r="0.5"/>
	<circle cx="23" cy="14" r="0.5"/>
	<circle cx="25" cy="14" r="0.5"/>
	<circle cx="27" cy="14" r="0.5"/>
	<circle cx="29" cy="14" r="0.5"/>
	<circle cx="31" cy="14" r="0.5"/>
	<circle cx="33" cy="14" r="0.5"/>
	<path d="M2.1,18c-0.1,0-0.2,0-0.2,0C1.9,18,2,18.1,2.1,18l37.8,0.1c0.1,0,0.2,0,0.3-0.1c-0.1,0-0.2,0-0.3,0H2.1z"/>
	<path d="M39.9,19c0.6,0,1.1,0.5,1.1,1.1V26c0,0.6-0.5,1.1-1.1,1.1H2.1C1.5,27,1,26.5,1,25.9V20c0-0.5,0.5-1,1.1-1
		c-0.5,0-1-0.2-1.4-0.5C0.3,18.9,0,19.4,0,20.1V26c0,1.1,0.9,2,2.1,2H40c1.1,0,2.1-0.9,2.1-2.1V20c-0.1-0.6-0.3-1.1-0.8-1.5
		C40.9,18.8,40.5,19,39.9,19L39.9,19z"/>
	<path d="M39.9,18.1H2.1C2,18.1,1.9,18,1.9,18c-0.4,0-0.8,0.2-1.2,0.5C1.1,18.8,1.6,19,2.1,19h37.8H40c0.5,0,0.9-0.2,1.3-0.5
		c-0.3-0.3-0.7-0.4-1.1-0.5C40.1,18.1,40,18.1,39.9,18.1z"/>
	<circle class="st1" cx="5.5" cy="23" r="1"/>
	<circle cx="22.5" cy="21.5" r="0.5"/>
	<circle cx="24.5" cy="21.5" r="0.5"/>
	<circle cx="26.5" cy="21.5" r="0.5"/>
	<circle cx="28.5" cy="21.5" r="0.5"/>
	<circle cx="30.5" cy="21.5" r="0.5"/>
	<circle cx="32.5" cy="21.5" r="0.5"/>
	<circle cx="34.5" cy="21.5" r="0.5"/>
	<circle cx="22.5" cy="24.5" r="0.5"/>
	<circle cx="24.5" cy="24.5" r="0.5"/>
	<circle cx="26.5" cy="24.5" r="0.5"/>
	<circle cx="28.5" cy="24.5" r="0.5"/>
	<circle cx="30.5" cy="24.5" r="0.5"/>
	<circle cx="32.5" cy="24.5" r="0.5"/>
	<circle cx="34.5" cy="24.5" r="0.5"/>
	<circle cx="21" cy="23" r="0.5"/>
	<circle cx="23" cy="23" r="0.5"/>
	<circle cx="25" cy="23" r="0.5"/>
	<circle cx="27" cy="23" r="0.5"/>
	<circle cx="29" cy="23" r="0.5"/>
	<circle cx="31" cy="23" r="0.5"/>
	<circle cx="33" cy="23" r="0.5"/>
</g>
<path d="M5.5,3.7C4.8,3.7,4.2,4.3,4.2,5s0.6,1.3,1.3,1.3S6.8,5.7,6.8,5S6.2,3.7,5.5,3.7z M5.5,6c-0.6,0-1-0.4-1-1s0.4-1,1-1
	s1,0.4,1,1S6.1,6,5.5,6z"/>
<path d="M5.5,15.3c0.7,0,1.3-0.6,1.3-1.3s-0.6-1.3-1.3-1.3S4.2,13.3,4.2,14S4.8,15.3,5.5,15.3z M5.5,13c0.6,0,1,0.4,1,1s-0.4,1-1,1
	s-1-0.4-1-1S4.9,13,5.5,13z"/>
<path d="M5.5,24.3c0.7,0,1.3-0.6,1.3-1.3s-0.6-1.3-1.3-1.3S4.2,22.3,4.2,23S4.8,24.3,5.5,24.3z M5.5,22c0.6,0,1,0.4,1,1s-0.4,1-1,1
	s-1-0.4-1-1S4.9,22,5.5,22z"/>
</svg>
