<?xml version="1.0" encoding="utf-8"?>
<!-- Generator: Adobe Illustrator 22.0.0, SVG Export Plug-In . SVG Version: 6.00 Build 0)  -->
<svg version="1.1" id="Layer_1" xmlns="http://www.w3.org/2000/svg" xmlns:xlink="http://www.w3.org/1999/xlink" x="0px" y="0px"
	 viewBox="0 0 31.5 25" style="enable-background:new 0 0 31.5 25;" xml:space="preserve">
<style type="text/css">
	.st0{fill:#FFFFFF;}
</style>
<g>
	<g>
		<path class="st0" d="M3.5,18.5c-1.7,0-3,1.3-3,3s1.3,3,3,3h19v-6H3.5z"/>
		<path d="M23,25H3.5c-2,0-3.5-1.5-3.5-3.5S1.5,18,3.5,18H23V25z M3.5,19C2.1,19,1,20.1,1,21.5S2.1,24,3.5,24H22v-5H3.5z"/>
	</g>
	<rect x="21.5" y="18" width="6" height="1"/>
	<rect x="20.5" y="24" width="7" height="1"/>
</g>
<g>
	<g>
		<path class="st0" d="M7.5,0.5c-1.7,0-3,1.3-3,3s1.3,3,3,3h19v-6H7.5z"/>
		<path d="M27,7H7.5C5.5,7,4,5.5,4,3.5S5.5,0,7.5,0H27V7z M7.5,1C6.1,1,5,2.1,5,3.5S6.1,6,7.5,6H26V1H7.5z"/>
	</g>
	<rect x="25.5" width="6" height="1"/>
	<rect x="24.5" y="6" width="7" height="1"/>
</g>
<g>
	<g>
		<path class="st0" d="M5.5,12.5c-1.7,0-3,1.3-3,3s1.3,3,3,3h19v-6H5.5z"/>
		<path d="M25,19H5.5c-2,0-3.5-1.5-3.5-3.5S3.5,12,5.5,12H25V19z M5.5,13C4.1,13,3,14.1,3,15.5S4.1,18,5.5,18H24v-5H5.5z"/>
	</g>
	<rect x="23.5" y="12" width="6" height="1"/>
	<rect x="22.5" y="18" width="7" height="1"/>
</g>
<g>
	<g>
		<path class="st0" d="M4.5,6.5c-1.7,0-3,1.3-3,3s1.3,3,3,3h19v-6H4.5z"/>
		<path d="M24,13H4.5C2.5,13,1,11.5,1,9.5S2.5,6,4.5,6H24V13z M4.5,7C3.1,7,2,8.1,2,9.5S3.1,12,4.5,12H23V7H4.5z"/>
	</g>
	<rect x="22.5" y="6" width="6" height="1"/>
	<rect x="21.5" y="12" width="7" height="1"/>
</g>
</svg>
