<?xml version="1.0" encoding="utf-8"?>
<!-- Generator: Adobe Illustrator 22.0.0, SVG Export Plug-In . SVG Version: 6.00 Build 0)  -->
<svg version="1.1" id="Layer_1" xmlns="http://www.w3.org/2000/svg" xmlns:xlink="http://www.w3.org/1999/xlink" x="0px" y="0px"
	 viewBox="0 0 43 44.6" style="enable-background:new 0 0 43 44.6;" xml:space="preserve">
<style type="text/css">
	.st0{fill:#FFFFFF;}
</style>
<g>
	<path class="st0" d="M2,7.3c2.6-4.2,7.5-6.2,12-5c5,1.3,8.6,6.2,8,10c-0.7,5-8.3,4.8-13,13c-1.1,2-3.4,6-2,9c2.4,5,14.3,6.5,21,1
		c5.9-4.8,7.3-14.6,5-16s-10.7,4-11,11c-0.3,6.9,7.5,13.8,13,12c3.4-1.1,5.9-5.6,6-11"/>
	<path d="M33.1,44.6c-2.3,0-4.8-0.9-7-2.6c-0.8-0.6-1.6-1.4-2.3-2.2c-3.4,1.1-7.2,1.3-10.8,0.5c-3.8-0.8-6.6-2.7-7.8-5.2
		c-1.8-3.9,0.6-8.3,2-10.6l0.1-0.2c2.7-4.7,6.3-7,9-8.6c2.4-1.5,3.6-2.3,3.8-3.7c0.4-2.7-2.4-6.7-6.5-7.8C9.8,3.3,5.8,5,3.7,8.4
		C3.1,9.3,1.9,9.6,0.9,9C0,8.4-0.3,7.2,0.3,6.2c3-4.9,8.9-7.3,14.2-5.9c5.8,1.5,10.3,7.2,9.5,12.2c-0.5,3.3-3,4.9-5.6,6.5
		c-2.5,1.6-5.4,3.4-7.6,7.2l-0.1,0.2c-0.9,1.6-2.8,5-1.8,7c0.6,1.3,2.5,2.4,5,3c2.2,0.5,4.9,0.5,7.6-0.1c-1-2-1.5-4.1-1.4-6.1
		c0.2-5.4,4.3-9.9,8.2-12c2.3-1.3,4.4-1.5,5.8-0.6c0.8,0.5,1.8,1.6,2,4.1c0.3,4.4-2,11.2-6.8,15.1c-0.5,0.4-1.1,0.8-1.7,1.2
		c0.3,0.3,0.6,0.5,0.9,0.7c2.1,1.6,4.3,2.2,5.9,1.6c2.6-0.8,4.5-4.7,4.6-9.1c0-1.1,0.9-1.9,2-2c1.1,0,2,0.9,2,2
		c-0.1,6.3-3.1,11.5-7.4,12.9C34.8,44.5,34,44.6,33.1,44.6z M31.9,21.1c-0.6,0.1-1.9,0.5-3.6,1.9c-2.6,2.1-4.1,4.8-4.3,7.4
		c-0.1,1.5,0.3,3,1.1,4.5c0.6-0.3,1.1-0.7,1.6-1.1C31.5,29.9,32.5,22.8,31.9,21.1z M32.1,21.1L32.1,21.1L32.1,21.1z M31.8,20.9
		L31.8,20.9L31.8,20.9z"/>
</g>
</svg>
