<?xml version="1.0" encoding="utf-8"?>
<!-- Generator: Adobe Illustrator 22.0.0, SVG Export Plug-In . SVG Version: 6.00 Build 0)  -->
<svg version="1.1" id="Layer_1" xmlns="http://www.w3.org/2000/svg" xmlns:xlink="http://www.w3.org/1999/xlink" x="0px" y="0px"
	 viewBox="0 0 61.7 56" style="enable-background:new 0 0 61.7 56;" xml:space="preserve">
<style type="text/css">
	.st0{fill:#FFFFFF;}
</style>
<g>
	<path class="st0" d="M0.5,53.4c0-0.3,6.5,1.5,10-2c2.4-2.5,1.2-5.3,4-8c2-2,5.5-3.2,7-2c2,1.6,1.2,7.7-2,11
		C13.5,58.5,0.5,53.9,0.5,53.4z"/>
	<path d="M10.4,56c-3.9,0-7.7-1-9.4-1.7C0.3,54,0,53.8,0,53.4v-0.2L0.2,53c0.2-0.2,0.4-0.2,1.2-0.1c1.9,0.2,6.2,0.7,8.8-1.9
		c1-1.1,1.4-2.3,1.7-3.5c0.4-1.5,0.8-3,2.3-4.5c2.1-2.1,5.9-3.4,7.7-2c0.7,0.6,1.2,1.6,1.3,3.1c0.2,2.4-0.8,6.2-3.2,8.7
		C17.4,55.3,13.9,56,10.4,56z M3.7,54.1c4.1,1.1,11.5,2,15.4-2.1c2.1-2.2,3.1-5.6,2.9-7.9c-0.1-1.1-0.4-1.9-0.9-2.3
		c-1.2-1-4.4,0-6.3,2c-1.4,1.3-1.7,2.6-2.1,4c-0.3,1.3-0.7,2.7-1.9,4C8.8,53.8,5.9,54.1,3.7,54.1z"/>
</g>
<g>
	<path d="M61,0.8c-3.5-3.6-34.2,30.6-36.4,33.1c-1.9,2.2-1.9,3.5-1.7,4.2c0,0,0.4,1.2,2.2,1.8C30.6,41.9,64.7,4.6,61,0.8z"/>
	<path d="M25.5,40.5c-0.2,0-0.4,0-0.6-0.1c-2-0.7-2.5-2.1-2.5-2.1c-0.4-1.3,0.2-2.9,1.8-4.7c0.3-0.3,29.6-33.4,36-33.5
		c0.5,0,0.9,0.1,1.1,0.4c0.6,0.6,1.1,2.1-2.3,7.2C52.5,17.9,31.4,40.5,25.5,40.5z M60.3,1C60.3,1,60.3,1,60.3,1
		C55.2,1.2,30.7,27.7,25,34.2c-0.9,1.1-1.9,2.6-1.6,3.7c0,0,0.4,1,1.9,1.5c3.9,1.4,25.2-20.3,33-32.3c3.1-4.8,2.5-5.8,2.4-6l0,0
		C60.6,1.1,60.5,1,60.3,1z"/>
</g>
</svg>
