<?xml version="1.0" encoding="utf-8"?>
<!-- Generator: Adobe Illustrator 22.0.0, SVG Export Plug-In . SVG Version: 6.00 Build 0)  -->
<svg version="1.1" id="Layer_1" xmlns="http://www.w3.org/2000/svg" xmlns:xlink="http://www.w3.org/1999/xlink" x="0px" y="0px"
	 viewBox="0 0 80 60.8" style="enable-background:new 0 0 80 60.8;" xml:space="preserve">
<style type="text/css">
	.st0{fill:#FFFFFF;}
</style>
<g>
	<path class="st0" d="M39.7,59.8c-1.4-2.4-5.3-4-10.1-4C18.2,55.8,4.8,57,1,59.7V10.6h78v49.1c-3.8-2.7-17.2-3.9-28.6-3.9
		c-4.8,0-8.7,1.6-10.1,4C40.3,59.8,39.7,59.8,39.7,59.8z"/>
	<path d="M78,11.6V58c-5.5-2.4-17.7-3.2-27.6-3.2c-4.6,0-8.5,1.4-10.4,3.7c-1.9-2.3-5.8-3.7-10.4-3.7C19.7,54.8,7.5,55.7,2,58V11.6
		H78 M80,9.6H0v51.2h1.2c2.3-2.3,14.1-4,28.4-4c4.8,0,8.7,1.7,9.5,4H41c0.8-2.3,4.7-4,9.5-4c14.3,0,26.1,1.7,28.4,4H80V9.6L80,9.6z"
		/>
</g>
<g>
	<g>
		<path class="st0" d="M10.8,1C8.3,1,6.7,2.7,6.7,5.2v40.6c0,2.6,1.5,4.5,3.9,4.9C28.3,51.2,40,55.1,40,60.8V6.3
			C40,3.3,28.4,1.3,10.8,1z"/>
		<path d="M41,60.8h-2c0-4.1-8.8-8.5-28.4-9.1l-0.1,0c-2.9-0.5-4.7-2.8-4.7-5.9V5.2C5.7,2.1,7.8,0,10.8,0h0C24.6,0.2,41,1.5,41,6.3
			V60.8z M10.7,49.7c14.1,0.4,24.2,2.9,28.3,6.9V6.3c0-1.2-6.9-3.9-28.2-4.3C8.9,2,7.7,3.2,7.7,5.2v40.6
			C7.7,47.9,8.8,49.4,10.7,49.7z"/>
	</g>
</g>
<g>
	<g>
		<path class="st0" d="M69.2,1c2.5,0,4.2,1.7,4.2,4.2v40.6c0,2.6-1.5,4.5-3.9,4.9C51.7,51.2,40,55.1,40,60.8V6.3
			C40,3.3,51.6,1.3,69.2,1z"/>
		<path d="M41,60.8h-2V6.3C39,1.5,55.4,0.2,69.2,0h0c3.1,0,5.2,2.1,5.2,5.2v40.6c0,3.1-1.9,5.4-4.7,5.9l-0.1,0
			C49.8,52.3,41,56.7,41,60.8z M69.2,2C47.9,2.4,41,5.1,41,6.3v50.3c4.1-3.9,14.2-6.5,28.4-6.9c1.9-0.3,3-1.8,3-3.9V5.2
			C72.4,3.3,71.1,2,69.2,2z"/>
	</g>
</g>
</svg>
