<?xml version="1.0" encoding="utf-8"?>
<!-- Generator: Adobe Illustrator 22.0.0, SVG Export Plug-In . SVG Version: 6.00 Build 0)  -->
<svg version="1.1" id="Layer_1" xmlns="http://www.w3.org/2000/svg" xmlns:xlink="http://www.w3.org/1999/xlink" x="0px" y="0px"
	 viewBox="0 0 100 100" style="enable-background:new 0 0 100 100;" xml:space="preserve">
<style type="text/css">
	.st0{fill:#E2E2E2;}
</style>
<path class="st0" d="M89.5,56.8c-0.9-1.5-2.7-2-4.2-1.1L50,76L14.7,55.6c-1.5-0.9-3.4-0.3-4.2,1.1s-0.3,3.4,1.1,4.2l36.8,21.3
	c0.2,0.1,0.5,0.2,0.8,0.3c0,0,0,0,0.1,0c0.2,0,0.3,0.1,0.5,0.1c0.1,0,0.2,0,0.3,0c0.1,0,0.2,0,0.3,0c0.2,0,0.3,0,0.5-0.1
	c0,0,0,0,0.1,0c0.3-0.1,0.5-0.2,0.8-0.3L88.4,61C89.8,60.1,90.3,58.2,89.5,56.8z"/>
</svg>
