<?xml version="1.0" encoding="utf-8"?>
<!-- Generator: Adobe Illustrator 22.0.0, SVG Export Plug-In . SVG Version: 6.00 Build 0)  -->
<svg version="1.1" id="Layer_1" xmlns="http://www.w3.org/2000/svg" xmlns:xlink="http://www.w3.org/1999/xlink" x="0px" y="0px"
	 viewBox="0 0 1277.9 555" style="enable-background:new 0 0 1277.9 555;" xml:space="preserve">
<style type="text/css">
	.st0{opacity:0.39;}
	.st1{fill:#55D855;}
	.st2{fill:#FFFFFF;stroke:#000000;stroke-linecap:round;stroke-linejoin:round;stroke-miterlimit:10;}
	.st3{fill:none;stroke:#000000;stroke-linecap:round;stroke-linejoin:round;stroke-miterlimit:10;}
	.st4{fill:none;stroke:#000000;stroke-linecap:round;stroke-miterlimit:10;}
	.st5{fill:#1E1E1E;}
</style>
<g id="Layer_1_1_" class="st0">
</g>
<g id="Layer_2_1_">
	<g>
		<circle class="st1" cx="716" cy="155.4" r="17.5"/>
		<g>
			<g>
				<circle class="st2" cx="715.7" cy="144.6" r="2.5"/>
				<line class="st3" x1="715.7" y1="147.1" x2="715.7" y2="152.6"/>
				<line class="st3" x1="715.7" y1="152.6" x2="718" y2="155"/>
			</g>
			<g>
				<circle class="st2" cx="708.8" cy="151.5" r="2.5"/>
				<line class="st3" x1="708.8" y1="153.9" x2="708.8" y2="159.5"/>
				<line class="st3" x1="708.8" y1="159.5" x2="706.4" y2="161.9"/>
			</g>
			<circle class="st2" cx="713.5" cy="158.1" r="2.5"/>
			<line class="st3" x1="713.5" y1="160.5" x2="713.5" y2="170.4"/>
			<g>
				<circle class="st2" cx="723.2" cy="150.1" r="2.5"/>
				<line class="st3" x1="723.2" y1="152.6" x2="723.2" y2="158.1"/>
				<line class="st3" x1="723.2" y1="158.1" x2="720.8" y2="160.5"/>
			</g>
			<line class="st3" x1="720.8" y1="160.5" x2="720.8" y2="164.4"/>
			<line class="st3" x1="718" y1="155" x2="718" y2="162.1"/>
			<line class="st3" x1="706.4" y1="161.9" x2="708.5" y2="164.1"/>
			<line class="st3" x1="720.8" y1="164.4" x2="718.2" y2="167.1"/>
			<line class="st3" x1="708.5" y1="164.1" x2="711" y2="166.5"/>
			<line class="st3" x1="711" y1="166.5" x2="711" y2="169.5"/>
			<line class="st3" x1="718.2" y1="167.1" x2="718.2" y2="169.5"/>
			<polyline class="st4" points="715.7,170.4 715.7,164.8 715.7,164.4 718,162.1 			"/>
		</g>
	</g>
	<path class="st5" d="M330.6,105.6h12.5v87.8h43V204h-55.5V105.6z"/>
	<path class="st5" d="M402.4,131.1h12.3V204h-12.3V131.1z"/>
	<path class="st5" d="M446.4,99.2c-4.7,0-8,3.1-8,8.3c0,4.9,3.8,7.6,8,7.6c0.5,0,1,0,1.4-0.1c-0.1,8.5-3.9,13.7-11.4,18.6l3.5,5.8
		c10.4-6,16-14.6,16-26.6C455.9,104.1,452.3,99.2,446.4,99.2z"/>
	<path class="st5" d="M461.2,195.7l6.1-8.1c6.3,5.1,12.8,8.6,21.5,8.6c9.6,0,14.3-5.1,14.3-11.3c0-7.5-8.6-10.8-16.7-13.8
		c-10.2-3.7-21.7-8.8-21.7-21.1c0-11.7,9.3-20.7,25.1-20.7c9.1,0,17,3.7,22.7,8.2l-5.9,7.9c-5-3.7-10.2-6.5-16.6-6.5
		c-9.2,0-13.4,4.9-13.4,10.5c0,6.9,7.9,9.6,16.2,12.6c10.5,4,22.2,8.2,22.2,22.1c0,11.8-9.4,21.7-26.6,21.7
		C478.1,205.8,468.1,201.4,461.2,195.7z"/>
	<path class="st5" d="M563.3,105.6H588c30.3,0,46.5,17.6,46.5,48.9s-16.3,49.5-46,49.5h-25.2V105.6z M587,193.7
		c23,0,34.5-14.4,34.5-39.3S610,115.8,587,115.8h-11.2v77.9L587,193.7L587,193.7z"/>
	<path class="st5" d="M654.5,131.1h12.3V204h-12.3V131.1z"/>
	<path class="st5" d="M685.9,218c0-6.2,4-12.1,10.7-16.5v-0.6c-3.7-2.3-6.5-6.2-6.5-12c0-6,4.2-10.9,8-13.5v-0.6
		c-4.8-3.8-9.4-10.9-9.4-19.6c0-15.9,12.6-26,27.4-26c4,0,7.6,0.8,10.3,1.8h25.4v9.5h-15c3.4,3.3,5.9,8.8,5.9,15
		c0,15.6-11.8,25.3-26.7,25.3c-3.5,0-7.6-0.9-10.9-2.5c-2.6,2.2-4.6,4.6-4.6,8.6c0,4.6,3,7.9,12.8,7.9h14.2
		c16.9,0,25.5,5.3,25.5,17.4c0,13.5-14.3,25.2-36.9,25.2C698.2,237.6,685.9,230.6,685.9,218z M740.9,214.2c0-6.7-5.1-9-14.7-9h-12.6
		c-2.8,0-6.2-0.3-9.5-1.1c-5.2,3.7-7.4,8-7.4,12.2c0,7.8,7.9,12.8,21.1,12.8C731.7,229,740.9,221.8,740.9,214.2z M731.5,155.3
		c0-10.6-6.9-17-15.5-17s-15.5,6.3-15.5,17c0,10.6,7.1,17.3,15.5,17.3S731.5,165.9,731.5,155.3z"/>
	<path class="st5" d="M767.1,131.1h12.3V204h-12.3V131.1z"/>
	<path class="st5" d="M806.2,181.5v-40.3h-10.8v-9.3l11.4-0.7l1.5-20.4h10.3v20.4h19.8v10.1h-19.8v40.5c0,8.9,2.9,14.1,11.3,14.1
		c2.6,0,5.9-1,8.3-2l2.4,9.3c-4.1,1.4-9,2.7-13.5,2.7C811.5,205.8,806.2,196,806.2,181.5z"/>
	<path class="st5" d="M847.1,185.1c0-15.9,13.7-23.8,44.8-27.2c0-9.4-3.1-18.4-15-18.4c-8.4,0-16,4-21.7,7.8l-4.8-8.5
		c6.7-4.4,16.9-9.5,28.6-9.5c17.8,0,25.3,11.8,25.3,30V204H894l-1-8.7h-0.4c-6.9,5.8-15.1,10.5-24.1,10.5
		C856.2,205.8,847.1,198.2,847.1,185.1z M891.9,186.2V166c-24.4,2.9-32.7,8.9-32.7,18.2c0,8.3,5.6,11.7,12.8,11.7
		C879,195.9,884.8,192.4,891.9,186.2z"/>
	<path class="st5" d="M927.3,189.4V97.1h12.3v93.1c0,3.8,1.6,5.3,3.4,5.3c0.7,0,1.3,0,2.7-0.3l1.7,9.4c-1.8,0.6-3.9,1.2-7.1,1.2
		C931.1,205.8,927.3,199.9,927.3,189.4z"/>
	<circle class="st1" cx="409" cy="108" r="10"/>
	<circle class="st1" cx="660.7" cy="108" r="10"/>
	<circle class="st1" cx="773.3" cy="108" r="10"/>
</g>
<g>
	<path class="st5" d="M384.7,381.2l7.5-8.6c7.1,7.4,16.9,12.2,27.2,12.2c12.9,0,20.6-6.4,20.6-16c0-10.1-7.1-13.3-16.4-17.3
		l-14.1-6.2c-9.2-3.9-19.9-10.9-19.9-25.3c0-15,13.1-26.1,31-26.1c11.7,0,22.1,5.1,29,12.2l-6.6,8c-6-5.7-13.2-9.2-22.3-9.2
		c-11,0-18.4,5.6-18.4,14.4c0,9.5,8.6,13,16.3,16.3l14,6.1c11.4,4.9,20.3,11.7,20.3,26.3c0,15.6-12.9,28-33.5,28
		C405.3,395.8,393.3,390.2,384.7,381.2z"/>
	<path class="st5" d="M465.3,357.6c0-23.7,16-38.4,32.8-38.4c18.6,0,29.1,13.4,29.1,34.2c0,2.6-0.2,5.2-0.6,7h-49.1
		c0.9,15.4,10.3,25.5,24.2,25.5c7,0,12.7-2.3,18.1-5.8l4.4,8.1c-6.4,4.2-14.2,7.6-24.1,7.6C480.8,395.8,465.3,381.6,465.3,357.6z
		 M516.3,351.7c0-14.6-6.6-22.6-18-22.6c-10.3,0-19.4,8.2-20.9,22.6H516.3z"/>
	<path class="st5" d="M545.1,321.1h10.2l1,13.3h0.4c5.1-9.3,12.5-15.1,20.7-15.1c3.2,0,5.5,0.4,7.8,1.5l-2.3,10.8
		c-2.5-0.8-4.2-1.2-7.1-1.2c-6.2,0-13.5,4.4-18.4,16.8V394h-12.3L545.1,321.1L545.1,321.1z"/>
	<path class="st5" d="M590.4,321.1h12.7l13.8,41.4c2.2,7.1,4.5,14.5,6.7,21.5h0.6c2.2-7,4.5-14.4,6.7-21.5l13.8-41.4h12.1L631,394
		h-14.3L590.4,321.1z"/>
	<path class="st5" d="M671,321.1h12.3V394H671V321.1z"/>
	<path class="st5" d="M702.5,357.6c0-24.3,16.4-38.4,35.1-38.4c9.6,0,16.2,3.9,21.3,8.6l-6.3,8.2c-4.2-3.8-8.7-6.4-14.5-6.4
		c-13.2,0-22.9,11.4-22.9,28.1s9.1,27.9,22.6,27.9c6.7,0,12.6-3.2,17.1-7.3l5.3,8.3c-6.6,5.8-14.8,9.3-23.6,9.3
		C717.3,395.8,702.5,381.8,702.5,357.6z"/>
	<path class="st5" d="M767.7,357.6c0-23.7,16-38.4,32.8-38.4c18.6,0,29.1,13.4,29.1,34.2c0,2.6-0.2,5.2-0.6,7h-49.1
		c0.9,15.4,10.3,25.5,24.2,25.5c7,0,12.7-2.3,18.1-5.8l4.4,8.1c-6.4,4.2-14.2,7.6-24.1,7.6C783.2,395.8,767.7,381.6,767.7,357.6z
		 M818.6,351.7c0-14.6-6.6-22.6-18-22.6c-10.3,0-19.4,8.2-20.9,22.6H818.6z"/>
	<path class="st5" d="M839.4,385.7l6.1-8.1c6.3,5.1,12.8,8.6,21.5,8.6c9.6,0,14.3-5.1,14.3-11.3c0-7.5-8.6-10.8-16.7-13.8
		c-10.2-3.7-21.7-8.8-21.7-21.1c0-11.7,9.3-20.7,25.1-20.7c9.1,0,17,3.7,22.7,8.2l-5.9,7.9c-5-3.7-10.2-6.5-16.6-6.5
		c-9.2,0-13.4,4.9-13.4,10.5c0,6.9,7.9,9.6,16.2,12.6c10.5,4,22.2,8.2,22.2,22.1c0,11.8-9.4,21.7-26.6,21.7
		C856.2,395.8,846.2,391.4,839.4,385.7z"/>
	<circle class="st1" cx="677.2" cy="298" r="10"/>
</g>
</svg>
