<?xml version="1.0" encoding="utf-8"?>
<!-- Generator: Adobe Illustrator 23.0.3, SVG Export Plug-In . SVG Version: 6.00 Build 0)  -->
<svg version="1.1" id="Layer_1" xmlns="http://www.w3.org/2000/svg" xmlns:xlink="http://www.w3.org/1999/xlink" x="0px" y="0px"
	 viewBox="0 0 1277.9 555" style="enable-background:new 0 0 1277.9 555;" xml:space="preserve">
<style type="text/css">
	.st0{opacity:0.39;}
	.st1{fill:#55D855;}
	.st2{fill:#FFFFFF;stroke:#000000;stroke-linecap:round;stroke-linejoin:round;stroke-miterlimit:10;}
	.st3{fill:none;stroke:#000000;stroke-linecap:round;stroke-linejoin:round;stroke-miterlimit:10;}
	.st4{fill:none;stroke:#000000;stroke-linecap:round;stroke-miterlimit:10;}
	.st5{fill:#1E1E1E;}
</style>
<g id="Layer_1_1_" class="st0">
</g>
<g>
	<g>
		<circle class="st1" cx="624.7" cy="103" r="11.8"/>
		<g>
			<g>
				<circle class="st2" cx="624.5" cy="95.7" r="1.7"/>
				<line class="st3" x1="624.5" y1="97.4" x2="624.5" y2="101.1"/>
				<line class="st3" x1="624.5" y1="101.1" x2="626" y2="102.7"/>
			</g>
			<g>
				<circle class="st2" cx="619.9" cy="100.4" r="1.7"/>
				<line class="st3" x1="619.9" y1="102" x2="619.9" y2="105.8"/>
				<line class="st3" x1="619.9" y1="105.8" x2="618.3" y2="107.4"/>
			</g>
			<circle class="st2" cx="623" cy="104.8" r="1.7"/>
			<line class="st3" x1="623" y1="106.4" x2="623" y2="113.1"/>
			<g>
				<circle class="st2" cx="629.5" cy="99.4" r="1.7"/>
				<line class="st3" x1="629.5" y1="101.1" x2="629.5" y2="104.8"/>
				<line class="st3" x1="629.5" y1="104.8" x2="627.9" y2="106.4"/>
			</g>
			<line class="st3" x1="627.9" y1="106.4" x2="627.9" y2="109"/>
			<line class="st3" x1="626" y1="102.7" x2="626" y2="107.5"/>
			<line class="st3" x1="618.3" y1="107.4" x2="619.7" y2="108.8"/>
			<line class="st3" x1="627.9" y1="109" x2="626.2" y2="110.9"/>
			<line class="st3" x1="619.7" y1="108.8" x2="621.3" y2="110.5"/>
			<line class="st3" x1="621.3" y1="110.5" x2="621.3" y2="112.5"/>
			<line class="st3" x1="626.2" y1="110.9" x2="626.2" y2="112.5"/>
			<polyline class="st4" points="624.5,113.1 624.5,109.3 624.5,109 626,107.5 			"/>
		</g>
	</g>
	<path class="st5" d="M546.8,100.6h12.5v87.8h43V199h-55.5V100.6z"/>
	<path class="st5" d="M618.6,126.1h12.3V199h-12.3V126.1z"/>
	<path class="st5" d="M662.6,94.2c-4.7,0-8,3.1-8,8.3c0,4.9,3.8,7.6,8,7.6c0.5,0,1,0,1.4-0.1c-0.1,8.5-3.9,13.7-11.4,18.6l3.5,5.8
		c10.4-6,16-14.6,16-26.6C672.1,99.1,668.5,94.2,662.6,94.2z"/>
	<path class="st5" d="M677.4,190.7l6.1-8.1c6.3,5.1,12.8,8.6,21.5,8.6c9.6,0,14.3-5.1,14.3-11.3c0-7.5-8.6-10.8-16.7-13.8
		c-10.2-3.7-21.7-8.8-21.7-21.1c0-11.7,9.3-20.7,25.1-20.7c9.1,0,17,3.7,22.7,8.2l-5.9,7.9c-5-3.7-10.2-6.5-16.6-6.5
		c-9.2,0-13.4,4.9-13.4,10.5c0,6.9,7.9,9.6,16.2,12.6c10.5,4,22.2,8.2,22.2,22.1c0,11.8-9.4,21.7-26.6,21.7
		C694.3,200.8,684.3,196.4,677.4,190.7z"/>
</g>
<g>
	<path d="M432.7,409.9l-23.9-94.4h12.9l11.2,47.7c2.8,11.8,5.3,23.5,7,32.6h0.3c1.5-9.4,4.5-20.6,7.7-32.8l12.6-47.6h12.7l11.5,47.9
		c2.7,11.2,5.2,22.4,6.6,32.3h0.3c2-10.4,4.6-20.9,7.6-32.6l12.5-47.6H524l-26.7,94.4h-12.7l-11.9-49.1c-2.9-12-4.9-21.3-6.2-30.8
		h-0.3c-1.7,9.4-3.8,18.6-7.3,30.8l-13.4,49.1H432.7z"/>
	<path d="M537.6,378.3c0.3,16.7,10.9,23.5,23.2,23.5c8.8,0,14.1-1.5,18.8-3.5l2.1,8.8c-4.3,2-11.8,4.3-22.5,4.3
		c-20.9,0-33.3-13.9-33.3-34.3c0-20.4,12-36.5,31.8-36.5c22.1,0,28,19.5,28,31.9c0,2.5-0.3,4.5-0.4,5.7H537.6z M573.7,369.5
		c0.1-7.8-3.2-20-17.1-20c-12.5,0-17.9,11.5-18.9,20H573.7z"/>
	<path d="M600.9,310.5h12.2v42.6h0.3c4.3-7.6,12.2-12.5,23.1-12.5c16.8,0,28.7,14,28.6,34.6c0,24.2-15.3,36.3-30.4,36.3
		c-9.8,0-17.6-3.8-22.7-12.7h-0.4l-0.6,11.2h-10.6c0.3-4.6,0.6-11.5,0.6-17.5V310.5z M613.1,382.8c0,1.5,0.3,3.1,0.6,4.5
		c2.4,8.5,9.5,14.4,18.5,14.4c12.9,0,20.6-10.5,20.6-26c0-13.6-7-25.2-20.2-25.2c-8.4,0-16.2,5.7-18.8,15.1c-0.3,1.4-0.7,3.1-0.7,5
		V382.8z"/>
	<path d="M678.9,397.3c3.6,2.4,10.1,4.9,16.2,4.9c9,0,13.2-4.5,13.2-10.1c0-5.9-3.5-9.1-12.6-12.5c-12.2-4.3-17.9-11.1-17.9-19.2
		c0-10.9,8.8-19.9,23.4-19.9c6.9,0,12.9,2,16.7,4.2l-3.1,9c-2.7-1.7-7.6-3.9-13.9-3.9c-7.3,0-11.3,4.2-11.3,9.2
		c0,5.6,4.1,8.1,12.9,11.5c11.8,4.5,17.8,10.4,17.8,20.4c0,11.9-9.2,20.4-25.3,20.4c-7.4,0-14.3-2-19-4.8L678.9,397.3z"/>
	<path d="M749.7,323.1c0.1,4.2-2.9,7.6-7.8,7.6c-4.3,0-7.4-3.4-7.4-7.6c0-4.3,3.2-7.7,7.7-7.7C746.8,315.4,749.7,318.8,749.7,323.1z
		 M736,409.9v-67.8h12.3v67.8H736z"/>
	<path d="M783.6,325.9v16.2h17.6v9.4h-17.6v36.5c0,8.4,2.4,13.2,9.2,13.2c3.4,0,5.3-0.3,7.1-0.8l0.6,9.2c-2.4,1-6.2,1.8-10.9,1.8
		c-5.7,0-10.4-2-13.3-5.3c-3.5-3.6-4.8-9.7-4.8-17.6v-37H761v-9.4h10.5v-12.5L783.6,325.9z"/>
	<path d="M821.1,378.3c0.3,16.7,10.9,23.5,23.2,23.5c8.8,0,14.1-1.5,18.8-3.5l2.1,8.8c-4.3,2-11.8,4.3-22.5,4.3
		c-20.9,0-33.3-13.9-33.3-34.3c0-20.4,12-36.5,31.8-36.5c22.1,0,28,19.5,28,31.9c0,2.5-0.3,4.5-0.4,5.7H821.1z M857.2,369.5
		c0.1-7.8-3.2-20-17.1-20c-12.5,0-17.9,11.5-18.9,20H857.2z"/>
</g>
</svg>
