<?xml version="1.0" encoding="utf-8"?>
<!-- Generator: Adobe Illustrator 23.0.0, SVG Export Plug-In . SVG Version: 6.00 Build 0)  -->
<svg version="1.1" id="Layer_1" xmlns="http://www.w3.org/2000/svg" xmlns:xlink="http://www.w3.org/1999/xlink" x="0px" y="0px"
	 viewBox="0 0 48 48" style="enable-background:new 0 0 48 48;" xml:space="preserve">
<style type="text/css">
	.st0{fill:none;stroke:#000000;stroke-linecap:round;stroke-linejoin:round;stroke-miterlimit:10;}
	.st1{fill:none;stroke:#000000;stroke-linecap:round;stroke-miterlimit:10;}
</style>
<g>
	<circle class="st0" cx="25.5" cy="7.81" r="3.57"/>
	<line class="st0" x1="25.5" y1="11.39" x2="25.5" y2="19.48"/>
	<line class="st0" x1="25.5" y1="19.48" x2="28.96" y2="22.94"/>
</g>
<g>
	<circle class="st0" cx="15.5" cy="17.81" r="3.57"/>
	<line class="st0" x1="15.5" y1="21.39" x2="15.5" y2="29.48"/>
	<line class="st0" x1="15.5" y1="29.48" x2="12.04" y2="32.94"/>
</g>
<circle class="st0" cx="22.45" cy="27.37" r="3.57"/>
<line class="st0" x1="22.45" y1="30.94" x2="22.45" y2="45.19"/>
<g>
	<circle class="st0" cx="36.5" cy="15.81" r="3.57"/>
	<line class="st0" x1="36.5" y1="19.39" x2="36.5" y2="27.48"/>
	<line class="st0" x1="36.5" y1="27.48" x2="33.04" y2="30.94"/>
</g>
<line class="st0" x1="33.04" y1="30.94" x2="33.04" y2="36.61"/>
<line class="st0" x1="28.96" y1="22.94" x2="28.96" y2="33.14"/>
<line class="st0" x1="12.04" y1="32.94" x2="15.18" y2="36.08"/>
<line class="st0" x1="33.04" y1="36.61" x2="29.12" y2="40.53"/>
<line class="st0" x1="15.18" y1="36.08" x2="18.7" y2="39.6"/>
<line class="st0" x1="18.7" y1="39.6" x2="18.7" y2="43.91"/>
<line class="st0" x1="29.12" y1="40.53" x2="29.12" y2="43.91"/>
<polyline class="st1" points="25.5,45.19 25.5,37.16 25.5,36.6 28.96,33.14 "/>
</svg>
