<?xml version="1.0" encoding="utf-8"?>
<!-- Generator: Adobe Illustrator 23.0.0, SVG Export Plug-In . SVG Version: 6.00 Build 0)  -->
<svg version="1.1" id="Layer_1" xmlns="http://www.w3.org/2000/svg" xmlns:xlink="http://www.w3.org/1999/xlink" x="0px" y="0px"
	 viewBox="0 0 30 30" style="enable-background:new 0 0 30 30;" xml:space="preserve">
<style type="text/css">
	.st0{fill:#FFFFFF;stroke:#CECACA;stroke-width:0.5;stroke-miterlimit:10;}
	.st1{fill:#FFFFFF;stroke:#939393;stroke-width:0.5;stroke-miterlimit:10;}
	.st2{fill:#FFFFFF;stroke:#000000;stroke-linecap:round;stroke-linejoin:round;stroke-miterlimit:10;}
	.st3{fill:none;stroke:#000000;stroke-linecap:round;stroke-linejoin:round;stroke-miterlimit:10;}
	.st4{fill:none;stroke:#000000;stroke-linecap:round;stroke-miterlimit:10;}
</style>
<circle class="st0" cx="15.22" cy="15.21" r="14"/>
<circle class="st1" cx="15" cy="15" r="14"/>
<g>
	<g>
		<circle class="st2" cx="14.72" cy="6.4" r="1.97"/>
		<line class="st2" x1="14.72" y1="8.37" x2="14.72" y2="12.83"/>
		<line class="st2" x1="14.72" y1="12.83" x2="16.63" y2="14.74"/>
	</g>
	<g>
		<circle class="st2" cx="9.21" cy="11.91" r="1.97"/>
		<line class="st2" x1="9.21" y1="13.88" x2="9.21" y2="18.34"/>
		<line class="st2" x1="9.21" y1="18.34" x2="7.31" y2="20.25"/>
	</g>
	<circle class="st2" cx="13.04" cy="17.18" r="1.97"/>
	<line class="st3" x1="13.04" y1="19.15" x2="13.04" y2="27"/>
	<g>
		<circle class="st2" cx="20.79" cy="10.81" r="1.97"/>
		<line class="st2" x1="20.79" y1="12.78" x2="20.79" y2="17.24"/>
		<line class="st2" x1="20.79" y1="17.24" x2="18.88" y2="19.15"/>
	</g>
	<line class="st3" x1="18.88" y1="19.15" x2="18.88" y2="22.27"/>
	<line class="st3" x1="16.63" y1="14.74" x2="16.63" y2="20.36"/>
	<line class="st3" x1="7.31" y1="20.25" x2="9.04" y2="21.98"/>
	<line class="st3" x1="18.88" y1="22.27" x2="16.72" y2="24.43"/>
	<line class="st3" x1="9.04" y1="21.98" x2="10.98" y2="23.92"/>
	<line class="st3" x1="10.98" y1="23.92" x2="10.98" y2="26.29"/>
	<line class="st3" x1="16.72" y1="24.43" x2="16.72" y2="26.29"/>
	<polyline class="st4" points="14.72,27 14.72,22.57 14.72,22.27 16.63,20.36 	"/>
</g>
</svg>
